<?xml version="1.0" encoding="UTF-8" standalone="no"?>
<!DOCTYPE svg PUBLIC "-//W3C//DTD SVG 1.1//EN"
 "http://www.w3.org/Graphics/SVG/1.1/DTD/svg11.dtd">
<!-- Generated by graphviz version 12.2.1 (20241206.2353)
 -->
<!-- Pages: 1 -->
<svg width="467pt" height="348pt"
 viewBox="0.00 0.00 467.39 347.93" xmlns="http://www.w3.org/2000/svg" xmlns:xlink="http://www.w3.org/1999/xlink">
<g id="graph0" class="graph" transform="scale(1 1) rotate(0) translate(4 343.93)">
<polygon fill="white" stroke="none" points="-4,4 -4,-343.93 463.39,-343.93 463.39,4 -4,4"/>
<!-- call_1 -->
<g id="node1" class="node">
<title>call_1</title>
<ellipse fill="none" stroke="black" cx="256.19" cy="-310.94" rx="44.19" ry="28.99"/>
<text text-anchor="middle" x="256.19" y="-314.14" font-family="Times New Roman,serif" font-size="14.00">fib(n=4)</text>
<text text-anchor="middle" x="256.19" y="-297.64" font-family="Times New Roman,serif" font-size="14.00">return: 3</text>
</g>
<!-- call_2 -->
<g id="node2" class="node">
<title>call_2</title>
<ellipse fill="none" stroke="black" cx="203.19" cy="-216.96" rx="44.19" ry="28.99"/>
<text text-anchor="middle" x="203.19" y="-220.16" font-family="Times New Roman,serif" font-size="14.00">fib(n=3)</text>
<text text-anchor="middle" x="203.19" y="-203.66" font-family="Times New Roman,serif" font-size="14.00">return: 2</text>
</g>
<!-- call_1&#45;&gt;call_2 -->
<g id="edge1" class="edge">
<title>call_1&#45;&gt;call_2</title>
<path fill="none" stroke="black" d="M240.86,-283.33C235.65,-274.28 229.72,-263.99 224.14,-254.3"/>
<polygon fill="black" stroke="black" points="227.27,-252.73 219.25,-245.81 221.21,-256.23 227.27,-252.73"/>
</g>
<!-- call_7 -->
<g id="node7" class="node">
<title>call_7</title>
<ellipse fill="none" stroke="black" cx="309.19" cy="-216.96" rx="44.19" ry="28.99"/>
<text text-anchor="middle" x="309.19" y="-220.16" font-family="Times New Roman,serif" font-size="14.00">fib(n=2)</text>
<text text-anchor="middle" x="309.19" y="-203.66" font-family="Times New Roman,serif" font-size="14.00">return: 1</text>
</g>
<!-- call_1&#45;&gt;call_7 -->
<g id="edge6" class="edge">
<title>call_1&#45;&gt;call_7</title>
<path fill="none" stroke="black" d="M271.52,-283.33C276.74,-274.28 282.67,-263.99 288.25,-254.3"/>
<polygon fill="black" stroke="black" points="291.18,-256.23 293.14,-245.81 285.12,-252.73 291.18,-256.23"/>
</g>
<!-- call_3 -->
<g id="node3" class="node">
<title>call_3</title>
<ellipse fill="none" stroke="black" cx="97.19" cy="-122.97" rx="44.19" ry="28.99"/>
<text text-anchor="middle" x="97.19" y="-126.17" font-family="Times New Roman,serif" font-size="14.00">fib(n=2)</text>
<text text-anchor="middle" x="97.19" y="-109.67" font-family="Times New Roman,serif" font-size="14.00">return: 1</text>
</g>
<!-- call_2&#45;&gt;call_3 -->
<g id="edge2" class="edge">
<title>call_2&#45;&gt;call_3</title>
<path fill="none" stroke="black" d="M176.99,-193.22C163.36,-181.39 146.52,-166.77 131.82,-154.02"/>
<polygon fill="black" stroke="black" points="134.45,-151.67 124.61,-147.76 129.86,-156.96 134.45,-151.67"/>
</g>
<!-- call_6 -->
<g id="node6" class="node">
<title>call_6</title>
<ellipse fill="none" stroke="black" cx="203.19" cy="-122.97" rx="44.19" ry="28.99"/>
<text text-anchor="middle" x="203.19" y="-126.17" font-family="Times New Roman,serif" font-size="14.00">fib(n=1)</text>
<text text-anchor="middle" x="203.19" y="-109.67" font-family="Times New Roman,serif" font-size="14.00">return: 1</text>
</g>
<!-- call_2&#45;&gt;call_6 -->
<g id="edge5" class="edge">
<title>call_2&#45;&gt;call_6</title>
<path fill="none" stroke="black" d="M203.19,-187.61C203.19,-180.09 203.19,-171.83 203.19,-163.82"/>
<polygon fill="black" stroke="black" points="206.69,-163.9 203.19,-153.9 199.69,-163.9 206.69,-163.9"/>
</g>
<!-- call_4 -->
<g id="node4" class="node">
<title>call_4</title>
<ellipse fill="none" stroke="black" cx="44.19" cy="-28.99" rx="44.19" ry="28.99"/>
<text text-anchor="middle" x="44.19" y="-32.19" font-family="Times New Roman,serif" font-size="14.00">fib(n=1)</text>
<text text-anchor="middle" x="44.19" y="-15.69" font-family="Times New Roman,serif" font-size="14.00">return: 1</text>
</g>
<!-- call_3&#45;&gt;call_4 -->
<g id="edge3" class="edge">
<title>call_3&#45;&gt;call_4</title>
<path fill="none" stroke="black" d="M81.86,-95.37C76.65,-86.31 70.72,-76.03 65.14,-66.34"/>
<polygon fill="black" stroke="black" points="68.27,-64.77 60.25,-57.85 62.21,-68.26 68.27,-64.77"/>
</g>
<!-- call_5 -->
<g id="node5" class="node">
<title>call_5</title>
<ellipse fill="none" stroke="black" cx="150.19" cy="-28.99" rx="44.19" ry="28.99"/>
<text text-anchor="middle" x="150.19" y="-32.19" font-family="Times New Roman,serif" font-size="14.00">fib(n=0)</text>
<text text-anchor="middle" x="150.19" y="-15.69" font-family="Times New Roman,serif" font-size="14.00">return: 0</text>
</g>
<!-- call_3&#45;&gt;call_5 -->
<g id="edge4" class="edge">
<title>call_3&#45;&gt;call_5</title>
<path fill="none" stroke="black" d="M112.52,-95.37C117.74,-86.31 123.67,-76.03 129.25,-66.34"/>
<polygon fill="black" stroke="black" points="132.18,-68.26 134.14,-57.85 126.12,-64.77 132.18,-68.26"/>
</g>
<!-- call_8 -->
<g id="node8" class="node">
<title>call_8</title>
<ellipse fill="none" stroke="black" cx="309.19" cy="-122.97" rx="44.19" ry="28.99"/>
<text text-anchor="middle" x="309.19" y="-126.17" font-family="Times New Roman,serif" font-size="14.00">fib(n=1)</text>
<text text-anchor="middle" x="309.19" y="-109.67" font-family="Times New Roman,serif" font-size="14.00">return: 1</text>
</g>
<!-- call_7&#45;&gt;call_8 -->
<g id="edge7" class="edge">
<title>call_7&#45;&gt;call_8</title>
<path fill="none" stroke="black" d="M309.19,-187.61C309.19,-180.09 309.19,-171.83 309.19,-163.82"/>
<polygon fill="black" stroke="black" points="312.69,-163.9 309.19,-153.9 305.69,-163.9 312.69,-163.9"/>
</g>
<!-- call_9 -->
<g id="node9" class="node">
<title>call_9</title>
<ellipse fill="none" stroke="black" cx="415.19" cy="-122.97" rx="44.19" ry="28.99"/>
<text text-anchor="middle" x="415.19" y="-126.17" font-family="Times New Roman,serif" font-size="14.00">fib(n=0)</text>
<text text-anchor="middle" x="415.19" y="-109.67" font-family="Times New Roman,serif" font-size="14.00">return: 0</text>
</g>
<!-- call_7&#45;&gt;call_9 -->
<g id="edge8" class="edge">
<title>call_7&#45;&gt;call_9</title>
<path fill="none" stroke="black" d="M335.4,-193.22C349.03,-181.39 365.87,-166.77 380.56,-154.02"/>
<polygon fill="black" stroke="black" points="382.52,-156.96 387.78,-147.76 377.94,-151.67 382.52,-156.96"/>
</g>
</g>
</svg>
